<svg width="224" height="29" viewBox="0 0 224 29" fill="none" xmlns="http://www.w3.org/2000/svg">
<path d="M0 28.5193V0.480662H18.105V4.60635H5.12707V12.4572H15.6215V16.5028H5.12707V28.5193H0Z" fill="#393948"/>
<path d="M22.0617 28.5193V0.480662H32.3559C34.599 0.480662 36.4415 0.867863 37.8835 1.64227C39.3522 2.38996 40.447 3.41805 41.168 4.72652C41.889 6.00829 42.2495 7.43692 42.2495 9.01243C42.2495 10.7215 41.7956 12.2836 40.8876 13.6989C40.0064 15.1142 38.6178 16.1423 36.7219 16.7831L42.5299 28.5193H36.6418L31.4346 17.4641H27.1887V28.5193H22.0617ZM27.1887 13.6989H32.0354C33.7445 13.6989 34.9995 13.285 35.8006 12.4572C36.6017 11.6294 37.0023 10.5345 37.0023 9.17265C37.0023 7.83748 36.6017 6.76934 35.8006 5.96823C35.0262 5.16713 33.7578 4.76657 31.9954 4.76657H27.1887V13.6989Z" fill="#393948"/>
<path d="M45.2155 28.5193L55.4696 0.480662H61.2376L71.4917 28.5193H66.0442L63.8011 22.0304H52.866L50.5829 28.5193H45.2155ZM54.268 18.0249H62.3992L58.3135 6.36878L54.268 18.0249Z" fill="#393948"/>
<path d="M75.1036 28.5193V0.480662H80.2307L93.4088 20.2279V0.480662H98.5359V28.5193H93.4088L80.2307 8.81215V28.5193H75.1036Z" fill="#393948"/>
<path d="M116.669 29C113.838 29 111.408 28.3992 109.379 27.1975C107.35 25.9692 105.787 24.2735 104.693 22.1105C103.598 19.9208 103.05 17.3973 103.05 14.5401C103.05 11.6828 103.598 9.1593 104.693 6.96961C105.787 4.77993 107.35 3.0709 109.379 1.84254C111.408 0.614181 113.838 0 116.669 0C120.034 0 122.784 0.84116 124.92 2.52348C127.083 4.1791 128.432 6.51565 128.966 9.53315H123.318C122.971 8.01105 122.223 6.82274 121.075 5.96823C119.954 5.08702 118.458 4.64641 116.589 4.64641C113.999 4.64641 111.969 5.52762 110.501 7.29005C109.032 9.05249 108.298 11.4692 108.298 14.5401C108.298 17.611 109.032 20.0276 110.501 21.7901C111.969 23.5258 113.999 24.3936 116.589 24.3936C118.458 24.3936 119.954 23.9931 121.075 23.192C122.223 22.3642 122.971 21.2293 123.318 19.7873H128.966C128.432 22.6713 127.083 24.9277 124.92 26.5566C122.784 28.1855 120.034 29 116.669 29Z" fill="#393948"/>
<path d="M133.504 28.5193V0.480662H138.632V12.1367H151.209V0.480662H156.336V28.5193H151.209V16.3025H138.632V28.5193H133.504Z" fill="#393948"/>
<path d="M159.983 28.5193L170.237 0.480662H176.005L186.259 28.5193H180.812L178.569 22.0304H167.634L165.351 28.5193H159.983ZM169.036 18.0249H177.167L173.081 6.36878L169.036 18.0249Z" fill="#393948"/>
<path d="M189.871 28.5193V0.480662H194.998V28.5193H189.871Z" fill="#393948"/>
<path d="M200.433 28.5193V0.480662H205.56L218.738 20.2279V0.480662H223.865V28.5193H218.738L205.56 8.81215V28.5193H200.433Z" fill="#393948"/>
</svg>
